<svg xmlns="http://www.w3.org/2000/svg" viewBox="0 0 235 235"><defs><style>.cls-1{fill:#7c6e6e;}</style></defs><title>Asset 1</title><g id="Layer_2" data-name="Layer 2"><g id="Layer_1-2" data-name="Layer 1"><path class="cls-1" d="M117.5,6a111.5,111.5,0,0,1,78.84,190.34A111.5,111.5,0,1,1,38.66,38.66,110.77,110.77,0,0,1,117.5,6m0-6A117.5,117.5,0,1,0,235,117.5,117.5,117.5,0,0,0,117.5,0Z"/><path class="cls-1" d="M117.5,86A31.5,31.5,0,1,1,86,117.5,31.53,31.53,0,0,1,117.5,86m0-6A37.5,37.5,0,1,0,155,117.5,37.5,37.5,0,0,0,117.5,80Z"/><path class="cls-1" d="M117.5,66A51.5,51.5,0,1,1,66,117.5,51.55,51.55,0,0,1,117.5,66m0-6A57.5,57.5,0,1,0,175,117.5,57.5,57.5,0,0,0,117.5,60Z"/><path class="cls-1" d="M117.5,26A91.5,91.5,0,1,1,26,117.5,91.61,91.61,0,0,1,117.5,26m0-6A97.5,97.5,0,1,0,215,117.5,97.5,97.5,0,0,0,117.5,20Z"/><path class="cls-1" d="M117.5,46A71.5,71.5,0,1,1,46,117.5,71.57,71.57,0,0,1,117.5,46m0-6A77.5,77.5,0,1,0,195,117.5,77.5,77.5,0,0,0,117.5,40Z"/></g></g></svg>